<svg xmlns="http://www.w3.org/2000/svg" shape-rendering="geometricPrecision" text-rendering="geometricPrecision" image-rendering="optimizeQuality" fill-rule="evenodd" clip-rule="evenodd" viewBox="0 0 512 326.78"><path fill-rule="nonzero" d="M59.36 46.65h175.22c8.22 0 14.91 6.69 14.91 14.9v42.54c-1.74.71-3.21 1.73-4.53 2.98l-.99 1.07-1.66 2.01V82.68H51.64v72.3h153.94c-.53.99-.9 2.04-1.12 3.11-4.04 1.58-7.01 5.38-7.3 9.99l-1.5 23.77H59.36c-8.22 0-14.91-6.7-14.91-14.91V61.55c0-8.21 6.7-14.9 14.91-14.9zM272.87 324.3c4.44-57.52 26.35-44.12 75.43-74.84 15.16 31.64 76.76 33.93 89.4 0 42.35 27.08 74.58 14.78 74.3 74.84H272.87zm86.99-77.33c-.64-.84 1.72-6.67 2.28-7.61-6.41-5.71-11.48-11.47-12.56-23.31l-.68.01c-1.59-.02-3.12-.38-4.56-1.2-2.31-1.3-3.91-3.54-5-6.07-2.31-5.31-9.92-22.92 1.67-21.53-6.48-12.09 8.19-32.77-17.1-40.41 20.75-26.29 64.53-66.81 96.61-26.15 35.11 3.39 46.08 45.13 22.43 68 1.38.04 2.68.36 3.83.98 4.41 2.36 4.54 7.47 3.39 11.76-1.14 3.58-2.59 6-3.95 9.48-1.68 4.72-4.11 5.59-8.81 5.09-.23 11.65-5.62 17.37-12.87 24.21l1.97 6.73c-9.71 20.63-50.09 21.45-66.65.02zM11.29 0h380.89c6.23 0 11.29 5.06 11.29 11.29v69.83a57.48 57.48 0 0 0-15.34-1.72V26.46c0-5.47-4.46-9.97-9.97-9.97H25.34c-5.48 0-10 4.47-9.96 9.97v189.21c0 5.47 4.49 9.96 9.96 9.96H321.4l1.59 2.15c1.62 1.97 3.5 3.79 5.66 5.43-10.14 5.79-18.76 9.53-26.12 12.72-8.44 3.66-15.8 6.85-22.14 10.5H11.29C5.07 256.43 0 251.37 0 245.15V11.29C0 5.06 5.07 0 11.29 0zm139.26 272.01h102.37c.07 4.89.69 10.33 1.95 15.88-2.8 8.59-4.73 19.36-5.87 33.22-.14 1.04-.21 2.11-.21 3.19 0 .84.04 1.67.13 2.48H123.23c15.91-11.53 27.4-34.19 27.32-54.77zm80.41-83.78-23.99 6.72 1.66-26.15 22.33 19.43zm-15.23-27.82 37.1-44.99c.84-.8 1.7-1.15 2.76-.64l19.9 16.66c.79.83 1.03 1.84.06 2.96l-37.49 45.45-22.33-19.44zM139.3 98.38l25.2 17.58c.4.24.75.59 1.04.99a3.6 3.6 0 0 1-.91 4.99l-25.11 17.36c-.62.5-1.41.81-2.27.81-1.99 0-3.6-1.61-3.6-3.6v-35.2s.55-1.89.65-2.05a3.601 3.601 0 0 1 5-.88zm55.72 86.28v-22.5h-43.48v22.5h43.48zm-50.66 0v-22.5h-44.27v22.5h44.27zm-51.46-22.5H51.64v14.78c0 4.24 3.48 7.72 7.72 7.72H92.9v-22.5zM195.02 75.5V53.83h-43.48v21.66l43.48.01zm7.18-21.67v21.66h40.1V61.55c0-4.24-3.48-7.72-7.73-7.72H202.2zM144.36 75.5V53.83h-44.27v21.66l44.27.01zm-51.46 0V53.83H59.36c-4.24 0-7.72 3.48-7.72 7.72v13.94l41.26.01z"/></svg>